<?xml version="1.0" encoding="utf-8"?>
<!-- Generator: Adobe Illustrator 25.1.0, SVG Export Plug-In . SVG Version: 6.00 Build 0)  -->
<svg version="1.1" id="Layer_1" xmlns="http://www.w3.org/2000/svg" xmlns:xlink="http://www.w3.org/1999/xlink" x="0px" y="0px"
	 viewBox="0 0 595.5 295.7" style="enable-background:new 0 0 595.5 295.7;" xml:space="preserve">
<style type="text/css">
	.st0{fill:#8427E2;}
	.st1{clip-path:url(#SVGID_2_);}
	.st2{fill:url(#SVGID_3_);}
</style>
<g>
	<g>
		<g>
			<path class="st0" d="M476,172c1.7,0,2.3,0.6,3,2.8c3.4,11,13.6,16.9,25.4,16.9c11.6,0,20.3-5.5,20.3-14.4
				c0-7.8-5.5-13.3-19.1-17.4l-15.2-4.4c-22.7-6.6-37.5-20.7-37.5-42.6c0-26.5,19.3-42.3,48.1-42.3c28.8,0,46.8,19.3,49.8,39.6
				c0.2,2.1-1.3,4-3.6,4h-22.4c-1.9,0-2.8-0.6-3.4-2.3c-4-10.6-12.5-14.2-20.3-14.2c-10.4,0-18.6,4.9-18.6,13.3
				c0,8.9,6.1,13.8,18,17.1l16.7,4.7c23.3,6.6,37.1,21.2,37.1,43.4c0,24.3-19.7,42.6-49.8,42.6c-32.4,0-51.7-20.7-54.8-42.8
				c-0.2-2.1,1.5-4,3.6-4H476z M361.9,72.9h80c1.9,0,3.6,1.7,3.6,3.6v20.7c0,1.9-1.7,3.6-3.6,3.6h-54.4v29.6h41.7
				c2.1,0,3.6,1.7,3.6,3.6v20.7c0,1.9-1.5,3.6-3.6,3.6h-41.7v54.4c0,1.9-1.7,3.6-3.6,3.6h-22c-2.1,0-3.6-1.7-3.6-3.6V76.5
				C358.3,74.6,359.8,72.9,361.9,72.9z M317.6,72.9h22c1.9,0,3.6,1.7,3.6,3.6v136.3c0,1.9-1.7,3.6-3.6,3.6h-22
				c-2.1,0-3.6-1.7-3.6-3.6V76.5C314,74.6,315.5,72.9,317.6,72.9z"/>
		</g>
	</g>
	<g>
		<defs>
			<path id="SVGID_1_" d="M100.4,47.3c2.3-4,7.5-5.7,11.5-3.2L221,112.9c1,0.6,1.4,1.9,0.8,3c-0.6,1.1-1.9,1.4-3,0.8L103.6,58.8
				C99.4,56.7,98.1,51.4,100.4,47.3z M171.3,128.8c-0.4-1.4-1.8-2.1-3.2-1.8l-108.9,22c-5.5,1.1-8.6,7.1-7.1,12.6
				c1.5,5.5,7.3,8.9,12.6,7.1l104.9-36.6C170.9,131.6,171.7,130.2,171.3,128.8z M63.7,128l141-8.1c1.5-0.1,2.6-1.2,2.6-2.6
				c0-1.5-1.2-2.6-2.6-2.6l-141-7.1c-5.6-0.3-10.2,4.6-10.2,10.2C53.5,123.4,58,128.3,63.7,128z M232.5,120.9
				c0.6,0.9,1.8,1.2,2.7,0.7c0.9-0.6,1.2-1.8,0.7-2.7l-48.3-89.4c-1.9-3.5-6.7-4.6-10.1-2.4s-4.8,6.8-2.4,10.1L232.5,120.9z
				 M78.4,89.9l104.9,19.7c1.3,0.2,2.5-0.4,2.9-1.7c0.3-1.3-0.4-2.4-1.7-2.9L83.7,70c-5.4-1.9-11.1,1.8-12.5,7.3
				C69.7,82.8,72.8,88.8,78.4,89.9z M137.8,41.2l71,59.9c0.8,0.7,2.1,0.7,2.8-0.1c0.8-0.8,0.7-2-0.1-2.8l-63-68.2
				c-2.9-3.1-8-2.9-10.9,0.2C134.6,33.3,134.5,38.5,137.8,41.2z M234.4,108.7c0.3,0.9,1.2,1.4,2.1,1.1s1.3-1.2,1.1-2.1l-15.2-67
				c-0.8-3.4-4.5-5.2-7.8-4.2c-3.3,1-5.4,4.6-4.2,7.8L234.4,108.7z M274.5,118.5L262,136c-0.5,0.7-0.5,1.4,0,2c0.6,0.6,1.4,0.5,2,0
				l17.6-12.6c2.2-1.6,1.9-5.1-0.1-7C279.6,116.5,276.1,116.2,274.5,118.5z M277.5,136L242,158.5c-0.7,0.4-1,1.2-0.6,1.9
				c0.4,0.7,1.2,0.9,1.9,0.6l38.8-16.1c2.5-1.1,3.4-4.3,2.1-6.7C283,135.7,279.8,134.5,277.5,136z M252.9,114.1
				c0.8,0.2,1.4-0.3,1.7-1l11.6-31.4c1-2.6-1-5.3-3.7-6c-2.7-0.7-5.7,0.6-6.1,3.4l-4.6,33.3C251.8,113.2,252.2,113.9,252.9,114.1z
				 M244.3,133.9c0.8,0,1.4-0.6,1.4-1.4l3-72.8c0.1-2.7-2.3-4.9-5.1-4.9c-2.7,0-5.1,2.1-5,4.8l4.2,72.9
				C242.9,133.3,243.5,133.9,244.3,133.9z M246.1,148.4c0.7,0.4,1.5,0.1,1.9-0.6l28.2-44.7c1.5-2.3,0.4-5.4-2-6.7
				c-2.4-1.3-5.5-0.8-6.7,1.8l-22.1,48.3C245.2,147.2,245.5,148,246.1,148.4z M272,181.6l-21.8-2.2c-0.8-0.1-1.5,0.3-1.7,1
				c-0.2,0.8,0.3,1.4,1,1.8l19.9,9.2c2.5,1.2,5.4-0.9,6.1-3.6C276.2,185.1,274.7,181.9,272,181.6z M265.6,195.7l-50.6-23.5
				c-0.7-0.3-1.5-0.1-1.9,0.6c-0.4,0.7-0.1,1.5,0.5,1.9l46.6,30.6c2.5,1.6,5.9,0.5,7.4-2.1C269.2,200.5,268.4,197,265.6,195.7z
				 M201.9,167.4c-0.5-0.7-1.4-0.9-2-0.5c-0.7,0.4-0.9,1.3-0.5,2l33.2,62.6c1.6,3,5.6,3.7,8.4,2c2.9-1.8,4-5.7,2-8.4L201.9,167.4z
				 M194.8,126.5c-0.7-1.2-2.3-1.6-3.6-0.9L70.7,188.4c-5,2.6-6.5,9.2-3.6,14c2.9,4.9,9.3,6.7,14,3.6l0.1,0l112.6-75.9
				C195.1,129.2,195.5,127.7,194.8,126.5z M278.5,152.6l-19.6,7.5c-0.7,0.3-1.2,0.9-1.1,1.7c0.2,0.8,0.9,1.1,1.7,1.1l21-1.7
				c2.4-0.2,3.8-2.9,3.3-5.3C283.2,153.5,280.8,151.7,278.5,152.6z M276.1,166.3l-46.3,3.4c-0.8,0.1-1.4,0.6-1.4,1.4
				c0,0.8,0.6,1.4,1.4,1.4l46.2,3.8c2.7,0.2,5-2.2,5-5C281,168.6,278.8,166.1,276.1,166.3z M256.2,210.1L224.6,187
				c-0.6-0.5-1.5-0.5-2,0.1c-0.5,0.6-0.4,1.4,0.1,2l25.3,29.8c2.1,2.5,6.3,2.1,8.5-0.3C258.7,216.2,258.9,212.1,256.2,210.1z
				 M172.5,152.4c-0.8-0.8-2.1-0.7-2.9,0l-75.4,68.1c-3.6,3.3-3.3,9.2,0.2,12.6c3.5,3.4,9.4,3.5,12.6-0.2l65.5-77.6
				C173.2,154.5,173.3,153.2,172.5,152.4z M189.1,141.6c-1-0.5-2.2-0.1-2.8,0.8L125,240.3c-2.6,4.2-0.8,9.7,3.5,12.1
				c4.3,2.4,10,0.9,12.1-3.5l49.3-104.5C190.4,143.3,190.1,142.1,189.1,141.6z M192.9,157c-0.1-0.9-0.8-1.6-1.7-1.5
				c-0.9,0-1.5,0.8-1.5,1.7l-0.2,92.1c0,3.8,3.4,6.6,7.1,6.4c3.7-0.2,6.8-3.4,6.4-7.1L192.9,157z M202.8,185.5
				c-0.3-0.8-1.1-1.2-1.9-0.9c-0.8,0.3-1.1,1.1-0.9,1.9l13.5,55.9c0.8,3.3,4.5,5,7.7,3.9c3.2-1.1,5.2-4.6,3.9-7.7L202.8,185.5z
				 M183.8,170c-1-0.2-1.9,0.4-2.2,1.4l-22.2,78.9c-1.1,4,1.8,8,5.8,8.8c4,0.8,8.3-1.7,8.8-5.8l11.1-81.2
				C185.4,171.2,184.8,170.2,183.8,170z"/>
		</defs>
		<clipPath id="SVGID_2_">
			<use xlink:href="#SVGID_1_"  style="overflow:visible;"/>
		</clipPath>
		<g class="st1">
			<radialGradient id="SVGID_3_" cx="207.5285" cy="147.8633" r="194.5056" gradientUnits="userSpaceOnUse">
				<stop  offset="0.15" style="stop-color:#72C9F8"/>
				<stop  offset="0.2014" style="stop-color:#75AEF4"/>
				<stop  offset="0.3036" style="stop-color:#7A7EEE"/>
				<stop  offset="0.4008" style="stop-color:#7F58E9"/>
				<stop  offset="0.4904" style="stop-color:#823DE5"/>
				<stop  offset="0.5695" style="stop-color:#832DE3"/>
				<stop  offset="0.63" style="stop-color:#8427E2"/>
			</radialGradient>
			<circle class="st2" cx="207.5" cy="147.9" r="194.5"/>
		</g>
	</g>
</g>
</svg>
